<mxfile host="app.diagrams.net" agent="Mozilla/5.0 (Windows NT 10.0; Win64; x64) AppleWebKit/537.36 (KHTML, like Gecko) Chrome/134.0.0.0 Safari/537.36 Edg/134.0.0.0" version="26.1.0">
  <diagram name="Página-1" id="afzx3g1En9e3U05Ntp9F">
    <mxGraphModel dx="1339" dy="256" grid="1" gridSize="10" guides="1" tooltips="1" connect="1" arrows="1" fold="1" page="1" pageScale="1" pageWidth="827" pageHeight="1169" math="0" shadow="0">
      <root>
        <mxCell id="0" />
        <mxCell id="1" parent="0" />
        <mxCell id="2" value="Aluno" style="shape=umlLifeline;perimeter=lifelinePerimeter;whiteSpace=wrap;container=1;dropTarget=0;collapsible=0;recursiveResize=0;outlineConnect=0;portConstraint=eastwest;newEdgeStyle={&quot;edgeStyle&quot;:&quot;elbowEdgeStyle&quot;,&quot;elbow&quot;:&quot;vertical&quot;,&quot;curved&quot;:0,&quot;rounded&quot;:0};size=65;labelBackgroundColor=none;" parent="1" vertex="1">
          <mxGeometry width="150" height="3550" as="geometry" />
        </mxCell>
        <mxCell id="3" value="Sistema" style="shape=umlLifeline;perimeter=lifelinePerimeter;whiteSpace=wrap;container=1;dropTarget=0;collapsible=0;recursiveResize=0;outlineConnect=0;portConstraint=eastwest;newEdgeStyle={&quot;edgeStyle&quot;:&quot;elbowEdgeStyle&quot;,&quot;elbow&quot;:&quot;vertical&quot;,&quot;curved&quot;:0,&quot;rounded&quot;:0};size=65;labelBackgroundColor=none;" parent="1" vertex="1">
          <mxGeometry x="200" width="150" height="3550" as="geometry" />
        </mxCell>
        <mxCell id="1XgZBxYEKL8TLryhyje8-14" value="" style="html=1;points=[[0,0,0,0,5],[0,1,0,0,-5],[1,0,0,0,5],[1,1,0,0,-5]];perimeter=orthogonalPerimeter;outlineConnect=0;targetShapes=umlLifeline;portConstraint=eastwest;newEdgeStyle={&quot;curved&quot;:0,&quot;rounded&quot;:0};labelBackgroundColor=none;" parent="3" vertex="1">
          <mxGeometry x="70" y="100" width="10" height="180" as="geometry" />
        </mxCell>
        <mxCell id="1XgZBxYEKL8TLryhyje8-38" value="" style="html=1;points=[[0,0,0,0,5],[0,1,0,0,-5],[1,0,0,0,5],[1,1,0,0,-5]];perimeter=orthogonalPerimeter;outlineConnect=0;targetShapes=umlLifeline;portConstraint=eastwest;newEdgeStyle={&quot;curved&quot;:0,&quot;rounded&quot;:0};labelBackgroundColor=none;" parent="3" vertex="1">
          <mxGeometry x="70" y="310" width="10" height="180" as="geometry" />
        </mxCell>
        <mxCell id="Cvks8EGlnX5yU1Xf84aY-15" value="" style="html=1;points=[[0,0,0,0,5],[0,1,0,0,-5],[1,0,0,0,5],[1,1,0,0,-5]];perimeter=orthogonalPerimeter;outlineConnect=0;targetShapes=umlLifeline;portConstraint=eastwest;newEdgeStyle={&quot;curved&quot;:0,&quot;rounded&quot;:0};" parent="3" vertex="1">
          <mxGeometry x="70" y="2380" width="10" height="90" as="geometry" />
        </mxCell>
        <mxCell id="XL7HRUZ1tozqfuqfQOcD-17" value="" style="html=1;points=[[0,0,0,0,5],[0,1,0,0,-5],[1,0,0,0,5],[1,1,0,0,-5]];perimeter=orthogonalPerimeter;outlineConnect=0;targetShapes=umlLifeline;portConstraint=eastwest;newEdgeStyle={&quot;curved&quot;:0,&quot;rounded&quot;:0};" vertex="1" parent="3">
          <mxGeometry x="70" y="2500" width="10" height="240" as="geometry" />
        </mxCell>
        <mxCell id="XL7HRUZ1tozqfuqfQOcD-34" value="" style="html=1;points=[[0,0,0,0,5],[0,1,0,0,-5],[1,0,0,0,5],[1,1,0,0,-5]];perimeter=orthogonalPerimeter;outlineConnect=0;targetShapes=umlLifeline;portConstraint=eastwest;newEdgeStyle={&quot;curved&quot;:0,&quot;rounded&quot;:0};" vertex="1" parent="3">
          <mxGeometry x="70" y="3240" width="10" height="130" as="geometry" />
        </mxCell>
        <mxCell id="4" value="Banco de Dados" style="shape=umlLifeline;perimeter=lifelinePerimeter;whiteSpace=wrap;container=1;dropTarget=0;collapsible=0;recursiveResize=0;outlineConnect=0;portConstraint=eastwest;newEdgeStyle={&quot;edgeStyle&quot;:&quot;elbowEdgeStyle&quot;,&quot;elbow&quot;:&quot;vertical&quot;,&quot;curved&quot;:0,&quot;rounded&quot;:0};size=65;labelBackgroundColor=none;" parent="1" vertex="1">
          <mxGeometry x="400" width="150" height="3550" as="geometry" />
        </mxCell>
        <mxCell id="1XgZBxYEKL8TLryhyje8-17" value="" style="html=1;points=[[0,0,0,0,5],[0,1,0,0,-5],[1,0,0,0,5],[1,1,0,0,-5]];perimeter=orthogonalPerimeter;outlineConnect=0;targetShapes=umlLifeline;portConstraint=eastwest;newEdgeStyle={&quot;curved&quot;:0,&quot;rounded&quot;:0};labelBackgroundColor=none;" parent="4" vertex="1">
          <mxGeometry x="70" y="110" width="10" height="40" as="geometry" />
        </mxCell>
        <mxCell id="1XgZBxYEKL8TLryhyje8-42" value="" style="html=1;points=[[0,0,0,0,5],[0,1,0,0,-5],[1,0,0,0,5],[1,1,0,0,-5]];perimeter=orthogonalPerimeter;outlineConnect=0;targetShapes=umlLifeline;portConstraint=eastwest;newEdgeStyle={&quot;curved&quot;:0,&quot;rounded&quot;:0};labelBackgroundColor=none;" parent="4" vertex="1">
          <mxGeometry x="70" y="320" width="10" height="40" as="geometry" />
        </mxCell>
        <mxCell id="Cvks8EGlnX5yU1Xf84aY-16" value="" style="html=1;points=[[0,0,0,0,5],[0,1,0,0,-5],[1,0,0,0,5],[1,1,0,0,-5]];perimeter=orthogonalPerimeter;outlineConnect=0;targetShapes=umlLifeline;portConstraint=eastwest;newEdgeStyle={&quot;curved&quot;:0,&quot;rounded&quot;:0};" parent="4" vertex="1">
          <mxGeometry x="70" y="2390" width="10" height="60" as="geometry" />
        </mxCell>
        <mxCell id="XL7HRUZ1tozqfuqfQOcD-20" value="" style="html=1;points=[[0,0,0,0,5],[0,1,0,0,-5],[1,0,0,0,5],[1,1,0,0,-5]];perimeter=orthogonalPerimeter;outlineConnect=0;targetShapes=umlLifeline;portConstraint=eastwest;newEdgeStyle={&quot;curved&quot;:0,&quot;rounded&quot;:0};" vertex="1" parent="4">
          <mxGeometry x="70" y="2520" width="10" height="60" as="geometry" />
        </mxCell>
        <mxCell id="XL7HRUZ1tozqfuqfQOcD-36" value="" style="html=1;points=[[0,0,0,0,5],[0,1,0,0,-5],[1,0,0,0,5],[1,1,0,0,-5]];perimeter=orthogonalPerimeter;outlineConnect=0;targetShapes=umlLifeline;portConstraint=eastwest;newEdgeStyle={&quot;curved&quot;:0,&quot;rounded&quot;:0};" vertex="1" parent="4">
          <mxGeometry x="70" y="3270" width="10" height="60" as="geometry" />
        </mxCell>
        <mxCell id="5" value="Moderador" style="shape=umlLifeline;perimeter=lifelinePerimeter;whiteSpace=wrap;container=1;dropTarget=0;collapsible=0;recursiveResize=0;outlineConnect=0;portConstraint=eastwest;newEdgeStyle={&quot;edgeStyle&quot;:&quot;elbowEdgeStyle&quot;,&quot;elbow&quot;:&quot;vertical&quot;,&quot;curved&quot;:0,&quot;rounded&quot;:0};size=65;labelBackgroundColor=none;" parent="1" vertex="1">
          <mxGeometry x="624" width="150" height="3550" as="geometry" />
        </mxCell>
        <mxCell id="Cvks8EGlnX5yU1Xf84aY-20" value="solicitarBanimentoUsuario()" style="verticalAlign=bottom;edgeStyle=elbowEdgeStyle;elbow=vertical;curved=0;rounded=0;endArrow=none;labelBackgroundColor=none;fontColor=default;startFill=1;startArrow=block;" parent="5" edge="1">
          <mxGeometry x="-0.0046" relative="1" as="geometry">
            <Array as="points">
              <mxPoint x="-324" y="2790" />
            </Array>
            <mxPoint x="-344" y="2790" as="sourcePoint" />
            <mxPoint x="74.5" y="2790" as="targetPoint" />
            <mxPoint as="offset" />
          </mxGeometry>
        </mxCell>
        <mxCell id="Cvks8EGlnX5yU1Xf84aY-23" value="Marcar usuário como banido" style="verticalAlign=bottom;edgeStyle=elbowEdgeStyle;elbow=vertical;curved=0;rounded=0;endArrow=block;labelBackgroundColor=none;fontColor=default;" parent="5" edge="1">
          <mxGeometry x="-0.0046" relative="1" as="geometry">
            <Array as="points" />
            <mxPoint x="-344.00499999999977" y="2820.005" as="sourcePoint" />
            <mxPoint x="-154" y="2820.01" as="targetPoint" />
            <mxPoint as="offset" />
          </mxGeometry>
        </mxCell>
        <mxCell id="Cvks8EGlnX5yU1Xf84aY-24" value="Confirmação do banimento" style="verticalAlign=bottom;edgeStyle=elbowEdgeStyle;elbow=vertical;curved=0;rounded=0;dashed=1;dashPattern=2 3;endArrow=block;labelBackgroundColor=none;fontColor=default;exitX=0;exitY=1;exitDx=0;exitDy=-5;exitPerimeter=0;" parent="5" edge="1">
          <mxGeometry x="-0.0497" relative="1" as="geometry">
            <Array as="points">
              <mxPoint x="-361.32000000000016" y="2860" />
            </Array>
            <mxPoint x="-154" y="2860.5299999999997" as="sourcePoint" />
            <mxPoint x="-344" y="2860" as="targetPoint" />
            <mxPoint as="offset" />
          </mxGeometry>
        </mxCell>
        <mxCell id="Cvks8EGlnX5yU1Xf84aY-25" value="Confirmação do banimento" style="verticalAlign=bottom;edgeStyle=elbowEdgeStyle;elbow=vertical;curved=0;rounded=0;endArrow=block;labelBackgroundColor=none;fontColor=default;dashed=1;" parent="5" edge="1">
          <mxGeometry x="-0.0046" relative="1" as="geometry">
            <Array as="points" />
            <mxPoint x="-344.00499999999977" y="2900.0049999999997" as="sourcePoint" />
            <mxPoint x="74.5" y="2900.217826086957" as="targetPoint" />
            <mxPoint as="offset" />
          </mxGeometry>
        </mxCell>
        <mxCell id="Cvks8EGlnX5yU1Xf84aY-26" value="solicitarExclusaoUsuario()" style="verticalAlign=bottom;edgeStyle=elbowEdgeStyle;elbow=vertical;curved=0;rounded=0;endArrow=none;labelBackgroundColor=none;fontColor=default;startFill=1;startArrow=block;" parent="5" edge="1">
          <mxGeometry x="-0.0046" relative="1" as="geometry">
            <Array as="points">
              <mxPoint x="-324" y="2960" />
            </Array>
            <mxPoint x="-344" y="2960" as="sourcePoint" />
            <mxPoint x="75" y="2960" as="targetPoint" />
            <mxPoint as="offset" />
          </mxGeometry>
        </mxCell>
        <mxCell id="Cvks8EGlnX5yU1Xf84aY-28" value="excluirDadosUsuario()" style="verticalAlign=bottom;edgeStyle=elbowEdgeStyle;elbow=vertical;curved=0;rounded=0;endArrow=block;labelBackgroundColor=none;fontColor=default;" parent="5" edge="1">
          <mxGeometry x="-0.0046" relative="1" as="geometry">
            <Array as="points" />
            <mxPoint x="-344.00499999999977" y="2989.995" as="sourcePoint" />
            <mxPoint x="-154" y="2990" as="targetPoint" />
            <mxPoint as="offset" />
          </mxGeometry>
        </mxCell>
        <mxCell id="Cvks8EGlnX5yU1Xf84aY-30" value="Confirmação exclusão dos dados" style="verticalAlign=bottom;edgeStyle=elbowEdgeStyle;elbow=vertical;curved=0;rounded=0;dashed=1;dashPattern=2 3;endArrow=block;labelBackgroundColor=none;fontColor=default;exitX=0;exitY=1;exitDx=0;exitDy=-5;exitPerimeter=0;" parent="5" edge="1">
          <mxGeometry x="-0.0497" relative="1" as="geometry">
            <Array as="points">
              <mxPoint x="-361.32000000000016" y="3020" />
            </Array>
            <mxPoint x="-154" y="3020.5299999999997" as="sourcePoint" />
            <mxPoint x="-344" y="3020" as="targetPoint" />
            <mxPoint as="offset" />
          </mxGeometry>
        </mxCell>
        <mxCell id="Cvks8EGlnX5yU1Xf84aY-31" value="Confirmação exclusão dos dados" style="verticalAlign=bottom;edgeStyle=elbowEdgeStyle;elbow=vertical;curved=0;rounded=0;endArrow=block;labelBackgroundColor=none;fontColor=default;dashed=1;" parent="5" edge="1">
          <mxGeometry x="-0.0046" relative="1" as="geometry">
            <Array as="points" />
            <mxPoint x="-344.00499999999977" y="3050.1349999999998" as="sourcePoint" />
            <mxPoint x="75" y="3050" as="targetPoint" />
            <mxPoint as="offset" />
          </mxGeometry>
        </mxCell>
        <mxCell id="Cvks8EGlnX5yU1Xf84aY-32" value="consultarArquivos()" style="verticalAlign=bottom;edgeStyle=elbowEdgeStyle;elbow=vertical;curved=0;rounded=0;endArrow=none;labelBackgroundColor=none;fontColor=default;startFill=1;startArrow=block;" parent="5" edge="1">
          <mxGeometry x="-0.0046" relative="1" as="geometry">
            <Array as="points">
              <mxPoint x="-324" y="3090" />
            </Array>
            <mxPoint x="-344" y="3090" as="sourcePoint" />
            <mxPoint x="75" y="3090" as="targetPoint" />
            <mxPoint as="offset" />
          </mxGeometry>
        </mxCell>
        <mxCell id="Cvks8EGlnX5yU1Xf84aY-35" value="buscarArquivos()" style="verticalAlign=bottom;edgeStyle=elbowEdgeStyle;elbow=vertical;curved=0;rounded=0;endArrow=block;labelBackgroundColor=none;fontColor=default;" parent="5" edge="1">
          <mxGeometry x="-0.0046" relative="1" as="geometry">
            <Array as="points" />
            <mxPoint x="-344.00499999999977" y="3119.995" as="sourcePoint" />
            <mxPoint x="-154" y="3120" as="targetPoint" />
            <mxPoint as="offset" />
          </mxGeometry>
        </mxCell>
        <mxCell id="Cvks8EGlnX5yU1Xf84aY-36" value="Retorna lista de arquivos" style="verticalAlign=bottom;edgeStyle=elbowEdgeStyle;elbow=vertical;curved=0;rounded=0;dashed=1;dashPattern=2 3;endArrow=block;labelBackgroundColor=none;fontColor=default;exitX=0;exitY=1;exitDx=0;exitDy=-5;exitPerimeter=0;" parent="5" edge="1">
          <mxGeometry x="-0.0497" relative="1" as="geometry">
            <Array as="points">
              <mxPoint x="-361.32000000000016" y="3150" />
            </Array>
            <mxPoint x="-154" y="3150.5299999999997" as="sourcePoint" />
            <mxPoint x="-344" y="3150" as="targetPoint" />
            <mxPoint as="offset" />
          </mxGeometry>
        </mxCell>
        <mxCell id="Cvks8EGlnX5yU1Xf84aY-37" value="Exibe lista de arquivos" style="verticalAlign=bottom;edgeStyle=elbowEdgeStyle;elbow=vertical;curved=0;rounded=0;endArrow=block;labelBackgroundColor=none;fontColor=default;dashed=1;" parent="5" edge="1">
          <mxGeometry x="-0.0046" relative="1" as="geometry">
            <Array as="points" />
            <mxPoint x="-343.50499999999977" y="3190.1349999999998" as="sourcePoint" />
            <mxPoint x="76" y="3190" as="targetPoint" />
            <mxPoint as="offset" />
          </mxGeometry>
        </mxCell>
        <mxCell id="Cvks8EGlnX5yU1Xf84aY-21" value="" style="html=1;points=[[0,0,0,0,5],[0,1,0,0,-5],[1,0,0,0,5],[1,1,0,0,-5]];perimeter=orthogonalPerimeter;outlineConnect=0;targetShapes=umlLifeline;portConstraint=eastwest;newEdgeStyle={&quot;curved&quot;:0,&quot;rounded&quot;:0};" parent="5" vertex="1">
          <mxGeometry x="-354" y="2780" width="10" height="130" as="geometry" />
        </mxCell>
        <mxCell id="Cvks8EGlnX5yU1Xf84aY-29" value="" style="html=1;points=[[0,0,0,0,5],[0,1,0,0,-5],[1,0,0,0,5],[1,1,0,0,-5]];perimeter=orthogonalPerimeter;outlineConnect=0;targetShapes=umlLifeline;portConstraint=eastwest;newEdgeStyle={&quot;curved&quot;:0,&quot;rounded&quot;:0};" parent="5" vertex="1">
          <mxGeometry x="-354" y="2940" width="10" height="120" as="geometry" />
        </mxCell>
        <mxCell id="Cvks8EGlnX5yU1Xf84aY-22" value="" style="html=1;points=[[0,0,0,0,5],[0,1,0,0,-5],[1,0,0,0,5],[1,1,0,0,-5]];perimeter=orthogonalPerimeter;outlineConnect=0;targetShapes=umlLifeline;portConstraint=eastwest;newEdgeStyle={&quot;curved&quot;:0,&quot;rounded&quot;:0};" parent="5" vertex="1">
          <mxGeometry x="-154" y="2810" width="10" height="60" as="geometry" />
        </mxCell>
        <mxCell id="Cvks8EGlnX5yU1Xf84aY-27" value="" style="html=1;points=[[0,0,0,0,5],[0,1,0,0,-5],[1,0,0,0,5],[1,1,0,0,-5]];perimeter=orthogonalPerimeter;outlineConnect=0;targetShapes=umlLifeline;portConstraint=eastwest;newEdgeStyle={&quot;curved&quot;:0,&quot;rounded&quot;:0};" parent="5" vertex="1">
          <mxGeometry x="-154" y="2970" width="10" height="60" as="geometry" />
        </mxCell>
        <mxCell id="Cvks8EGlnX5yU1Xf84aY-34" value="" style="html=1;points=[[0,0,0,0,5],[0,1,0,0,-5],[1,0,0,0,5],[1,1,0,0,-5]];perimeter=orthogonalPerimeter;outlineConnect=0;targetShapes=umlLifeline;portConstraint=eastwest;newEdgeStyle={&quot;curved&quot;:0,&quot;rounded&quot;:0};" parent="5" vertex="1">
          <mxGeometry x="-154" y="3100" width="10" height="60" as="geometry" />
        </mxCell>
        <mxCell id="Cvks8EGlnX5yU1Xf84aY-33" value="" style="html=1;points=[[0,0,0,0,5],[0,1,0,0,-5],[1,0,0,0,5],[1,1,0,0,-5]];perimeter=orthogonalPerimeter;outlineConnect=0;targetShapes=umlLifeline;portConstraint=eastwest;newEdgeStyle={&quot;curved&quot;:0,&quot;rounded&quot;:0};" parent="5" vertex="1">
          <mxGeometry x="-354" y="3080" width="10" height="120" as="geometry" />
        </mxCell>
        <mxCell id="1XgZBxYEKL8TLryhyje8-13" value="sistema.userRegistration(aluno)" style="verticalAlign=bottom;edgeStyle=elbowEdgeStyle;elbow=vertical;curved=0;rounded=0;endArrow=block;labelBackgroundColor=none;fontColor=default;" parent="1" source="2" edge="1">
          <mxGeometry relative="1" as="geometry">
            <Array as="points" />
            <mxPoint x="80" y="110" as="sourcePoint" />
            <mxPoint x="270" y="110" as="targetPoint" />
          </mxGeometry>
        </mxCell>
        <mxCell id="1XgZBxYEKL8TLryhyje8-16" value="verificarDados()" style="verticalAlign=bottom;edgeStyle=elbowEdgeStyle;elbow=vertical;curved=0;rounded=0;endArrow=block;labelBackgroundColor=none;fontColor=default;" parent="1" edge="1">
          <mxGeometry relative="1" as="geometry">
            <Array as="points">
              <mxPoint x="359" y="120" />
            </Array>
            <mxPoint x="280" y="120" as="sourcePoint" />
            <mxPoint x="470" y="120" as="targetPoint" />
          </mxGeometry>
        </mxCell>
        <mxCell id="1XgZBxYEKL8TLryhyje8-20" value="dadosVerificados" style="verticalAlign=bottom;edgeStyle=elbowEdgeStyle;elbow=vertical;curved=0;rounded=0;dashed=1;dashPattern=2 3;endArrow=block;labelBackgroundColor=none;fontColor=default;" parent="1" edge="1">
          <mxGeometry x="-0.0009" relative="1" as="geometry">
            <Array as="points">
              <mxPoint x="382.67999999999984" y="140" />
            </Array>
            <mxPoint x="470.17999999999984" y="140" as="sourcePoint" />
            <mxPoint x="280" y="140" as="targetPoint" />
            <mxPoint as="offset" />
          </mxGeometry>
        </mxCell>
        <mxCell id="1XgZBxYEKL8TLryhyje8-23" value="[erro]" style="text;html=1;align=center;verticalAlign=middle;whiteSpace=wrap;rounded=0;" parent="1" vertex="1">
          <mxGeometry x="10" y="160" width="80" height="30" as="geometry" />
        </mxCell>
        <mxCell id="1XgZBxYEKL8TLryhyje8-25" value="Erro no Cadastro" style="verticalAlign=bottom;edgeStyle=elbowEdgeStyle;elbow=vertical;curved=0;rounded=0;endArrow=block;labelBackgroundColor=none;fontColor=default;dashed=1;" parent="1" target="2" edge="1">
          <mxGeometry relative="1" as="geometry">
            <Array as="points">
              <mxPoint x="270" y="200" />
            </Array>
            <mxPoint x="260" y="200" as="sourcePoint" />
            <mxPoint x="80" y="200" as="targetPoint" />
          </mxGeometry>
        </mxCell>
        <mxCell id="1XgZBxYEKL8TLryhyje8-26" value="" style="verticalAlign=bottom;edgeStyle=elbowEdgeStyle;elbow=vertical;curved=0;rounded=0;dashed=1;dashPattern=2 3;endArrow=none;labelBackgroundColor=none;fontColor=default;exitX=0.997;exitY=0.409;exitDx=0;exitDy=0;exitPerimeter=0;startFill=0;" parent="1" edge="1">
          <mxGeometry relative="1" as="geometry">
            <Array as="points">
              <mxPoint x="74.32999999999984" y="210" />
            </Array>
            <mxPoint x="520.0000000000001" y="211.79999999999995" as="sourcePoint" />
            <mxPoint x="-28.35" y="210" as="targetPoint" />
          </mxGeometry>
        </mxCell>
        <mxCell id="1XgZBxYEKL8TLryhyje8-27" value="[else]" style="text;html=1;align=center;verticalAlign=middle;whiteSpace=wrap;rounded=0;" parent="1" vertex="1">
          <mxGeometry x="10" y="210" width="80" height="30" as="geometry" />
        </mxCell>
        <mxCell id="1XgZBxYEKL8TLryhyje8-29" value="armazenaCadastro(aluno)" style="verticalAlign=bottom;edgeStyle=elbowEdgeStyle;elbow=vertical;curved=0;rounded=0;endArrow=block;labelBackgroundColor=none;fontColor=default;" parent="1" edge="1">
          <mxGeometry relative="1" as="geometry">
            <Array as="points" />
            <mxPoint x="280" y="230" as="sourcePoint" />
            <mxPoint x="470" y="230" as="targetPoint" />
          </mxGeometry>
        </mxCell>
        <mxCell id="1XgZBxYEKL8TLryhyje8-30" value="Confirma o Cadastro" style="verticalAlign=bottom;edgeStyle=elbowEdgeStyle;elbow=vertical;curved=0;rounded=0;dashed=1;dashPattern=2 3;endArrow=block;labelBackgroundColor=none;fontColor=default;" parent="1" source="4" edge="1">
          <mxGeometry relative="1" as="geometry">
            <Array as="points">
              <mxPoint x="382.67999999999984" y="250" />
            </Array>
            <mxPoint x="470.17999999999984" y="250" as="sourcePoint" />
            <mxPoint x="280" y="250" as="targetPoint" />
          </mxGeometry>
        </mxCell>
        <mxCell id="1XgZBxYEKL8TLryhyje8-31" value="" style="html=1;points=[[0,0,0,0,5],[0,1,0,0,-5],[1,0,0,0,5],[1,1,0,0,-5]];perimeter=orthogonalPerimeter;outlineConnect=0;targetShapes=umlLifeline;portConstraint=eastwest;newEdgeStyle={&quot;curved&quot;:0,&quot;rounded&quot;:0};labelBackgroundColor=none;" parent="1" vertex="1">
          <mxGeometry x="470" y="220" width="10" height="40" as="geometry" />
        </mxCell>
        <mxCell id="1XgZBxYEKL8TLryhyje8-32" value="Confirma cadastro ao usuário" style="verticalAlign=bottom;edgeStyle=elbowEdgeStyle;elbow=vertical;curved=0;rounded=0;endArrow=block;labelBackgroundColor=none;fontColor=default;dashed=1;" parent="1" source="1XgZBxYEKL8TLryhyje8-14" target="2" edge="1">
          <mxGeometry relative="1" as="geometry">
            <Array as="points">
              <mxPoint x="250" y="260" />
            </Array>
            <mxPoint x="255.07" y="260" as="sourcePoint" />
            <mxPoint x="80" y="260" as="targetPoint" />
          </mxGeometry>
        </mxCell>
        <mxCell id="1XgZBxYEKL8TLryhyje8-21" value="alt" style="shape=umlFrame;whiteSpace=wrap;html=1;pointerEvents=0;labelBackgroundColor=none;" parent="1" vertex="1">
          <mxGeometry x="-30" y="160" width="550" height="130" as="geometry" />
        </mxCell>
        <mxCell id="1XgZBxYEKL8TLryhyje8-37" value="fazerLogin(dadosDeLogin)" style="verticalAlign=bottom;edgeStyle=elbowEdgeStyle;elbow=vertical;curved=0;rounded=0;endArrow=block;labelBackgroundColor=none;fontColor=default;" parent="1" source="2" edge="1">
          <mxGeometry x="-0.0006" relative="1" as="geometry">
            <Array as="points" />
            <mxPoint x="80" y="320.25" as="sourcePoint" />
            <mxPoint x="270" y="320" as="targetPoint" />
            <mxPoint as="offset" />
          </mxGeometry>
        </mxCell>
        <mxCell id="1XgZBxYEKL8TLryhyje8-41" value="buscaDadosLogin(dadosDeLogin)" style="verticalAlign=bottom;edgeStyle=elbowEdgeStyle;elbow=vertical;curved=0;rounded=0;endArrow=block;labelBackgroundColor=none;fontColor=default;" parent="1" edge="1">
          <mxGeometry relative="1" as="geometry">
            <Array as="points">
              <mxPoint x="359" y="330" />
            </Array>
            <mxPoint x="280" y="330" as="sourcePoint" />
            <mxPoint x="470" y="330" as="targetPoint" />
          </mxGeometry>
        </mxCell>
        <mxCell id="1XgZBxYEKL8TLryhyje8-47" value="dadosVerificados" style="verticalAlign=bottom;edgeStyle=elbowEdgeStyle;elbow=vertical;curved=0;rounded=0;dashed=1;dashPattern=2 3;endArrow=block;labelBackgroundColor=none;fontColor=default;" parent="1" edge="1">
          <mxGeometry x="-0.0009" relative="1" as="geometry">
            <Array as="points">
              <mxPoint x="382.49999999999983" y="350" />
            </Array>
            <mxPoint x="469.99999999999983" y="350" as="sourcePoint" />
            <mxPoint x="279.82" y="350" as="targetPoint" />
            <mxPoint as="offset" />
          </mxGeometry>
        </mxCell>
        <mxCell id="1XgZBxYEKL8TLryhyje8-48" value="" style="verticalAlign=bottom;edgeStyle=elbowEdgeStyle;elbow=vertical;curved=0;rounded=0;dashed=1;dashPattern=2 3;endArrow=none;labelBackgroundColor=none;fontColor=default;exitX=0.997;exitY=0.409;exitDx=0;exitDy=0;exitPerimeter=0;startFill=0;entryX=0.001;entryY=0.388;entryDx=0;entryDy=0;entryPerimeter=0;" parent="1" edge="1">
          <mxGeometry relative="1" as="geometry">
            <Array as="points">
              <mxPoint x="74.32999999999984" y="440" />
            </Array>
            <mxPoint x="520.0000000000001" y="441.79999999999995" as="sourcePoint" />
            <mxPoint x="-109.37000000000012" y="440.44000000000005" as="targetPoint" />
          </mxGeometry>
        </mxCell>
        <mxCell id="1XgZBxYEKL8TLryhyje8-49" value="alt" style="shape=umlFrame;whiteSpace=wrap;html=1;pointerEvents=0;labelBackgroundColor=none;" parent="1" vertex="1">
          <mxGeometry x="-110" y="370" width="630" height="130" as="geometry" />
        </mxCell>
        <mxCell id="1XgZBxYEKL8TLryhyje8-52" value="[dados.login == login]" style="text;html=1;align=center;verticalAlign=middle;whiteSpace=wrap;rounded=0;" parent="1" vertex="1">
          <mxGeometry x="-50" y="380" width="120" height="30" as="geometry" />
        </mxCell>
        <mxCell id="1XgZBxYEKL8TLryhyje8-53" value="Faz Login" style="verticalAlign=bottom;edgeStyle=elbowEdgeStyle;elbow=vertical;curved=0;rounded=0;endArrow=block;labelBackgroundColor=none;fontColor=default;startArrow=none;startFill=0;dashed=1;" parent="1" target="2" edge="1">
          <mxGeometry relative="1" as="geometry">
            <Array as="points">
              <mxPoint x="270" y="430" />
            </Array>
            <mxPoint x="260.07" y="430" as="sourcePoint" />
            <mxPoint x="80" y="430" as="targetPoint" />
          </mxGeometry>
        </mxCell>
        <mxCell id="1XgZBxYEKL8TLryhyje8-54" value="Retorna erro" style="verticalAlign=bottom;edgeStyle=elbowEdgeStyle;elbow=vertical;curved=0;rounded=0;endArrow=block;labelBackgroundColor=none;fontColor=default;dashed=1;" parent="1" source="1XgZBxYEKL8TLryhyje8-38" target="2" edge="1">
          <mxGeometry relative="1" as="geometry">
            <Array as="points">
              <mxPoint x="250" y="480" />
            </Array>
            <mxPoint x="255.07" y="480" as="sourcePoint" />
            <mxPoint x="80" y="480" as="targetPoint" />
          </mxGeometry>
        </mxCell>
        <mxCell id="1XgZBxYEKL8TLryhyje8-55" value="[else]" style="text;html=1;align=center;verticalAlign=middle;whiteSpace=wrap;rounded=0;" parent="1" vertex="1">
          <mxGeometry x="-30" y="440" width="50" height="30" as="geometry" />
        </mxCell>
        <mxCell id="1XgZBxYEKL8TLryhyje8-57" value="enviarArquivo()" style="verticalAlign=bottom;edgeStyle=elbowEdgeStyle;elbow=vertical;curved=0;rounded=0;endArrow=block;labelBackgroundColor=none;fontColor=default;" parent="1" source="2" edge="1">
          <mxGeometry relative="1" as="geometry">
            <Array as="points" />
            <mxPoint x="80" y="640" as="sourcePoint" />
            <mxPoint x="270" y="640" as="targetPoint" />
          </mxGeometry>
        </mxCell>
        <mxCell id="1XgZBxYEKL8TLryhyje8-58" value="loop" style="shape=umlFrame;whiteSpace=wrap;html=1;pointerEvents=0;labelBackgroundColor=none;" parent="1" vertex="1">
          <mxGeometry x="-150" y="510" width="950" height="1840" as="geometry" />
        </mxCell>
        <mxCell id="1XgZBxYEKL8TLryhyje8-59" value="[while userInput != logout]" style="text;html=1;align=center;verticalAlign=middle;whiteSpace=wrap;rounded=0;" parent="1" vertex="1">
          <mxGeometry x="-90" y="520" width="150" height="30" as="geometry" />
        </mxCell>
        <mxCell id="1XgZBxYEKL8TLryhyje8-60" value="alt" style="shape=umlFrame;whiteSpace=wrap;html=1;pointerEvents=0;labelBackgroundColor=none;" parent="1" vertex="1">
          <mxGeometry x="-140" y="550" width="920" height="390" as="geometry" />
        </mxCell>
        <mxCell id="1XgZBxYEKL8TLryhyje8-62" value="[userInput == fazerUpload]" style="text;html=1;align=center;verticalAlign=middle;whiteSpace=wrap;rounded=0;" parent="1" vertex="1">
          <mxGeometry x="-100" y="580" width="160" height="30" as="geometry" />
        </mxCell>
        <mxCell id="1XgZBxYEKL8TLryhyje8-63" value="" style="html=1;points=[[0,0,0,0,5],[0,1,0,0,-5],[1,0,0,0,5],[1,1,0,0,-5]];perimeter=orthogonalPerimeter;outlineConnect=0;targetShapes=umlLifeline;portConstraint=eastwest;newEdgeStyle={&quot;curved&quot;:0,&quot;rounded&quot;:0};labelBackgroundColor=none;" parent="1" vertex="1">
          <mxGeometry x="270" y="630" width="10" height="290" as="geometry" />
        </mxCell>
        <mxCell id="1XgZBxYEKL8TLryhyje8-64" value="solicitarAprovacaoDoArquivo()" style="verticalAlign=bottom;edgeStyle=elbowEdgeStyle;elbow=vertical;curved=0;rounded=0;endArrow=block;labelBackgroundColor=none;fontColor=default;" parent="1" target="1XgZBxYEKL8TLryhyje8-65" edge="1">
          <mxGeometry relative="1" as="geometry">
            <Array as="points" />
            <mxPoint x="280" y="660" as="sourcePoint" />
            <mxPoint x="690" y="660" as="targetPoint" />
          </mxGeometry>
        </mxCell>
        <mxCell id="1XgZBxYEKL8TLryhyje8-65" value="" style="html=1;points=[[0,0,0,0,5],[0,1,0,0,-5],[1,0,0,0,5],[1,1,0,0,-5]];perimeter=orthogonalPerimeter;outlineConnect=0;targetShapes=umlLifeline;portConstraint=eastwest;newEdgeStyle={&quot;curved&quot;:0,&quot;rounded&quot;:0};labelBackgroundColor=none;" parent="1" vertex="1">
          <mxGeometry x="694" y="650" width="10" height="250" as="geometry" />
        </mxCell>
        <mxCell id="1XgZBxYEKL8TLryhyje8-66" value="alt" style="shape=umlFrame;whiteSpace=wrap;html=1;pointerEvents=0;labelBackgroundColor=none;" parent="1" vertex="1">
          <mxGeometry x="-130" y="670" width="900" height="260" as="geometry" />
        </mxCell>
        <mxCell id="1XgZBxYEKL8TLryhyje8-67" value="[modResposta == aprovado]" style="text;html=1;align=center;verticalAlign=middle;whiteSpace=wrap;rounded=0;" parent="1" vertex="1">
          <mxGeometry x="-100" y="705" width="160" height="30" as="geometry" />
        </mxCell>
        <mxCell id="1XgZBxYEKL8TLryhyje8-68" value="Aprovado" style="verticalAlign=bottom;edgeStyle=elbowEdgeStyle;elbow=vertical;curved=0;rounded=0;dashed=1;dashPattern=2 3;endArrow=block;labelBackgroundColor=none;fontColor=default;" parent="1" edge="1">
          <mxGeometry relative="1" as="geometry">
            <Array as="points">
              <mxPoint x="516.6799999999998" y="750" />
            </Array>
            <mxPoint x="694" y="750" as="sourcePoint" />
            <mxPoint x="280" y="750" as="targetPoint" />
          </mxGeometry>
        </mxCell>
        <mxCell id="1XgZBxYEKL8TLryhyje8-69" value="" style="html=1;points=[[0,0,0,0,5],[0,1,0,0,-5],[1,0,0,0,5],[1,1,0,0,-5]];perimeter=orthogonalPerimeter;outlineConnect=0;targetShapes=umlLifeline;portConstraint=eastwest;newEdgeStyle={&quot;curved&quot;:0,&quot;rounded&quot;:0};labelBackgroundColor=none;" parent="1" vertex="1">
          <mxGeometry x="470" y="770" width="10" height="40" as="geometry" />
        </mxCell>
        <mxCell id="1XgZBxYEKL8TLryhyje8-70" value="armazenaArquivo()" style="verticalAlign=bottom;edgeStyle=elbowEdgeStyle;elbow=vertical;curved=0;rounded=0;endArrow=block;labelBackgroundColor=none;fontColor=default;" parent="1" target="1XgZBxYEKL8TLryhyje8-69" edge="1">
          <mxGeometry relative="1" as="geometry">
            <Array as="points" />
            <mxPoint x="280" y="780.22" as="sourcePoint" />
            <mxPoint x="460" y="780" as="targetPoint" />
          </mxGeometry>
        </mxCell>
        <mxCell id="1XgZBxYEKL8TLryhyje8-71" value="confirmaArmazenamento()" style="verticalAlign=bottom;edgeStyle=elbowEdgeStyle;elbow=vertical;curved=0;rounded=0;dashed=1;dashPattern=2 3;endArrow=block;labelBackgroundColor=none;fontColor=default;" parent="1" edge="1">
          <mxGeometry relative="1" as="geometry">
            <Array as="points">
              <mxPoint x="469.99999999999983" y="800" />
            </Array>
            <mxPoint x="463.32" y="800" as="sourcePoint" />
            <mxPoint x="280" y="800" as="targetPoint" />
          </mxGeometry>
        </mxCell>
        <mxCell id="1XgZBxYEKL8TLryhyje8-73" value="" style="verticalAlign=bottom;edgeStyle=elbowEdgeStyle;elbow=vertical;curved=0;rounded=0;dashed=1;dashPattern=2 3;endArrow=none;labelBackgroundColor=none;fontColor=default;startFill=0;entryX=0.001;entryY=0.388;entryDx=0;entryDy=0;entryPerimeter=0;" parent="1" edge="1">
          <mxGeometry relative="1" as="geometry">
            <Array as="points">
              <mxPoint x="53.69999999999985" y="850" />
            </Array>
            <mxPoint x="770" y="850" as="sourcePoint" />
            <mxPoint x="-130.0000000000001" y="850.44" as="targetPoint" />
          </mxGeometry>
        </mxCell>
        <mxCell id="1XgZBxYEKL8TLryhyje8-74" value="[else]" style="text;html=1;align=center;verticalAlign=middle;whiteSpace=wrap;rounded=0;" parent="1" vertex="1">
          <mxGeometry x="-100" y="850" width="160" height="30" as="geometry" />
        </mxCell>
        <mxCell id="1XgZBxYEKL8TLryhyje8-78" value="Rejeitado" style="verticalAlign=bottom;edgeStyle=elbowEdgeStyle;elbow=vertical;curved=0;rounded=0;dashed=1;dashPattern=2 3;endArrow=block;labelBackgroundColor=none;fontColor=default;exitX=0;exitY=1;exitDx=0;exitDy=-5;exitPerimeter=0;" parent="1" edge="1">
          <mxGeometry relative="1" as="geometry">
            <Array as="points">
              <mxPoint x="486.67999999999984" y="880.47" />
            </Array>
            <mxPoint x="694" y="881" as="sourcePoint" />
            <mxPoint x="280" y="880" as="targetPoint" />
          </mxGeometry>
        </mxCell>
        <mxCell id="1XgZBxYEKL8TLryhyje8-80" value="alt" style="shape=umlFrame;whiteSpace=wrap;html=1;pointerEvents=0;labelBackgroundColor=none;" parent="1" vertex="1">
          <mxGeometry x="-140" y="950" width="660" height="170" as="geometry" />
        </mxCell>
        <mxCell id="1XgZBxYEKL8TLryhyje8-81" value="[userInput == consultarDados]" style="text;html=1;align=center;verticalAlign=middle;whiteSpace=wrap;rounded=0;" parent="1" vertex="1">
          <mxGeometry x="-100" y="980" width="170" height="30" as="geometry" />
        </mxCell>
        <mxCell id="1XgZBxYEKL8TLryhyje8-84" value="" style="html=1;points=[[0,0,0,0,5],[0,1,0,0,-5],[1,0,0,0,5],[1,1,0,0,-5]];perimeter=orthogonalPerimeter;outlineConnect=0;targetShapes=umlLifeline;portConstraint=eastwest;newEdgeStyle={&quot;curved&quot;:0,&quot;rounded&quot;:0};labelBackgroundColor=none;" parent="1" vertex="1">
          <mxGeometry x="270" y="1020" width="10" height="90" as="geometry" />
        </mxCell>
        <mxCell id="1XgZBxYEKL8TLryhyje8-85" value="solicitarDados()" style="verticalAlign=bottom;edgeStyle=elbowEdgeStyle;elbow=vertical;curved=0;rounded=0;endArrow=block;labelBackgroundColor=none;fontColor=default;" parent="1" edge="1">
          <mxGeometry relative="1" as="geometry">
            <Array as="points" />
            <mxPoint x="74" y="1030.46" as="sourcePoint" />
            <mxPoint x="270" y="1030.46" as="targetPoint" />
          </mxGeometry>
        </mxCell>
        <mxCell id="1XgZBxYEKL8TLryhyje8-86" value="" style="html=1;points=[[0,0,0,0,5],[0,1,0,0,-5],[1,0,0,0,5],[1,1,0,0,-5]];perimeter=orthogonalPerimeter;outlineConnect=0;targetShapes=umlLifeline;portConstraint=eastwest;newEdgeStyle={&quot;curved&quot;:0,&quot;rounded&quot;:0};labelBackgroundColor=none;" parent="1" vertex="1">
          <mxGeometry x="470" y="1020" width="10" height="70" as="geometry" />
        </mxCell>
        <mxCell id="1XgZBxYEKL8TLryhyje8-88" value="retornaDados()" style="verticalAlign=bottom;edgeStyle=elbowEdgeStyle;elbow=vertical;curved=0;rounded=0;dashed=1;dashPattern=2 3;endArrow=block;labelBackgroundColor=none;fontColor=default;exitX=0;exitY=1;exitDx=0;exitDy=-5;exitPerimeter=0;" parent="1" edge="1">
          <mxGeometry relative="1" as="geometry">
            <Array as="points">
              <mxPoint x="262.67999999999984" y="1080" />
            </Array>
            <mxPoint x="470" y="1080.53" as="sourcePoint" />
            <mxPoint x="280" y="1080" as="targetPoint" />
          </mxGeometry>
        </mxCell>
        <mxCell id="1XgZBxYEKL8TLryhyje8-89" value="consultaDados()" style="verticalAlign=bottom;edgeStyle=elbowEdgeStyle;elbow=vertical;curved=0;rounded=0;endArrow=block;labelBackgroundColor=none;fontColor=default;" parent="1" edge="1">
          <mxGeometry relative="1" as="geometry">
            <Array as="points" />
            <mxPoint x="280" y="1040.46" as="sourcePoint" />
            <mxPoint x="470" y="1040" as="targetPoint" />
          </mxGeometry>
        </mxCell>
        <mxCell id="1XgZBxYEKL8TLryhyje8-90" value="exibeDados()" style="verticalAlign=bottom;edgeStyle=elbowEdgeStyle;elbow=vertical;curved=0;rounded=0;dashed=1;dashPattern=2 3;endArrow=block;labelBackgroundColor=none;fontColor=default;exitX=0;exitY=1;exitDx=0;exitDy=-5;exitPerimeter=0;" parent="1" target="2" edge="1">
          <mxGeometry relative="1" as="geometry">
            <Array as="points">
              <mxPoint x="62.679999999999836" y="1100" />
            </Array>
            <mxPoint x="270" y="1100.53" as="sourcePoint" />
            <mxPoint x="80" y="1100" as="targetPoint" />
          </mxGeometry>
        </mxCell>
        <mxCell id="1XgZBxYEKL8TLryhyje8-91" value="alt" style="shape=umlFrame;whiteSpace=wrap;html=1;pointerEvents=0;labelBackgroundColor=none;" parent="1" vertex="1">
          <mxGeometry x="-140" y="1130" width="660" height="1000" as="geometry" />
        </mxCell>
        <mxCell id="1XgZBxYEKL8TLryhyje8-92" value="[userInput == buscarArquivo]" style="text;html=1;align=center;verticalAlign=middle;whiteSpace=wrap;rounded=0;" parent="1" vertex="1">
          <mxGeometry x="-110" y="1169" width="170" height="30" as="geometry" />
        </mxCell>
        <mxCell id="1XgZBxYEKL8TLryhyje8-93" value="buscarArquivo()" style="verticalAlign=bottom;edgeStyle=elbowEdgeStyle;elbow=vertical;curved=0;rounded=0;endArrow=block;labelBackgroundColor=none;fontColor=default;" parent="1" edge="1">
          <mxGeometry relative="1" as="geometry">
            <Array as="points" />
            <mxPoint x="74" y="1220.41" as="sourcePoint" />
            <mxPoint x="270" y="1220.41" as="targetPoint" />
          </mxGeometry>
        </mxCell>
        <mxCell id="1XgZBxYEKL8TLryhyje8-94" value="" style="html=1;points=[[0,0,0,0,5],[0,1,0,0,-5],[1,0,0,0,5],[1,1,0,0,-5]];perimeter=orthogonalPerimeter;outlineConnect=0;targetShapes=umlLifeline;portConstraint=eastwest;newEdgeStyle={&quot;curved&quot;:0,&quot;rounded&quot;:0};labelBackgroundColor=none;" parent="1" vertex="1">
          <mxGeometry x="270" y="1210" width="10" height="120" as="geometry" />
        </mxCell>
        <mxCell id="1XgZBxYEKL8TLryhyje8-95" value="" style="html=1;points=[[0,0,0,0,5],[0,1,0,0,-5],[1,0,0,0,5],[1,1,0,0,-5]];perimeter=orthogonalPerimeter;outlineConnect=0;targetShapes=umlLifeline;portConstraint=eastwest;newEdgeStyle={&quot;curved&quot;:0,&quot;rounded&quot;:0};labelBackgroundColor=none;" parent="1" vertex="1">
          <mxGeometry x="470" y="1230" width="10" height="50" as="geometry" />
        </mxCell>
        <mxCell id="1XgZBxYEKL8TLryhyje8-96" value="consultaResultadosArquivo()" style="verticalAlign=bottom;edgeStyle=elbowEdgeStyle;elbow=vertical;curved=0;rounded=0;endArrow=block;labelBackgroundColor=none;fontColor=default;" parent="1" edge="1">
          <mxGeometry x="-0.0018" relative="1" as="geometry">
            <Array as="points" />
            <mxPoint x="280" y="1240" as="sourcePoint" />
            <mxPoint x="470" y="1240" as="targetPoint" />
            <mxPoint as="offset" />
          </mxGeometry>
        </mxCell>
        <mxCell id="1XgZBxYEKL8TLryhyje8-97" value="retornaResultadoBusca()" style="verticalAlign=bottom;edgeStyle=elbowEdgeStyle;elbow=vertical;curved=0;rounded=0;dashed=1;dashPattern=2 3;endArrow=block;labelBackgroundColor=none;fontColor=default;exitX=0;exitY=1;exitDx=0;exitDy=-5;exitPerimeter=0;" parent="1" edge="1">
          <mxGeometry relative="1" as="geometry">
            <Array as="points">
              <mxPoint x="262.67999999999984" y="1270" />
            </Array>
            <mxPoint x="470" y="1270.53" as="sourcePoint" />
            <mxPoint x="280" y="1270" as="targetPoint" />
          </mxGeometry>
        </mxCell>
        <mxCell id="1XgZBxYEKL8TLryhyje8-98" value="exibeResultadoBusca()" style="verticalAlign=bottom;edgeStyle=elbowEdgeStyle;elbow=vertical;curved=0;rounded=0;dashed=1;dashPattern=2 3;endArrow=block;labelBackgroundColor=none;fontColor=default;exitX=0;exitY=1;exitDx=0;exitDy=-5;exitPerimeter=0;" parent="1" target="2" edge="1">
          <mxGeometry relative="1" as="geometry">
            <Array as="points">
              <mxPoint x="62.679999999999836" y="1290" />
            </Array>
            <mxPoint x="270" y="1290.53" as="sourcePoint" />
            <mxPoint x="80" y="1290" as="targetPoint" />
          </mxGeometry>
        </mxCell>
        <mxCell id="1XgZBxYEKL8TLryhyje8-101" value="Ação Pós-Busca" style="verticalAlign=bottom;edgeStyle=elbowEdgeStyle;elbow=vertical;curved=0;rounded=0;endArrow=block;labelBackgroundColor=none;fontColor=default;" parent="1" edge="1">
          <mxGeometry x="0.0032" relative="1" as="geometry">
            <Array as="points" />
            <mxPoint x="74" y="1319.3100000000002" as="sourcePoint" />
            <mxPoint x="270" y="1319.3100000000002" as="targetPoint" />
            <mxPoint as="offset" />
          </mxGeometry>
        </mxCell>
        <mxCell id="1XgZBxYEKL8TLryhyje8-102" value="alt" style="shape=umlFrame;whiteSpace=wrap;html=1;pointerEvents=0;labelBackgroundColor=none;" parent="1" vertex="1">
          <mxGeometry x="-130" y="1340" width="640" height="150" as="geometry" />
        </mxCell>
        <mxCell id="1XgZBxYEKL8TLryhyje8-103" value="[Ação Pós-Busca == avaliarArquivo]" style="text;html=1;align=center;verticalAlign=middle;whiteSpace=wrap;rounded=0;" parent="1" vertex="1">
          <mxGeometry x="-122.5" y="1370" width="195" height="30" as="geometry" />
        </mxCell>
        <mxCell id="1XgZBxYEKL8TLryhyje8-104" value="fazerAvaliacaoArquivo()" style="verticalAlign=bottom;edgeStyle=elbowEdgeStyle;elbow=vertical;curved=0;rounded=0;endArrow=block;labelBackgroundColor=none;fontColor=default;" parent="1" edge="1">
          <mxGeometry relative="1" as="geometry">
            <Array as="points" />
            <mxPoint x="74" y="1419.5500000000002" as="sourcePoint" />
            <mxPoint x="270" y="1419.5500000000002" as="targetPoint" />
          </mxGeometry>
        </mxCell>
        <mxCell id="1XgZBxYEKL8TLryhyje8-105" value="" style="html=1;points=[[0,0,0,0,5],[0,1,0,0,-5],[1,0,0,0,5],[1,1,0,0,-5]];perimeter=orthogonalPerimeter;outlineConnect=0;targetShapes=umlLifeline;portConstraint=eastwest;newEdgeStyle={&quot;curved&quot;:0,&quot;rounded&quot;:0};labelBackgroundColor=none;" parent="1" vertex="1">
          <mxGeometry x="270" y="1410" width="10" height="80" as="geometry" />
        </mxCell>
        <mxCell id="1XgZBxYEKL8TLryhyje8-106" value="" style="html=1;points=[[0,0,0,0,5],[0,1,0,0,-5],[1,0,0,0,5],[1,1,0,0,-5]];perimeter=orthogonalPerimeter;outlineConnect=0;targetShapes=umlLifeline;portConstraint=eastwest;newEdgeStyle={&quot;curved&quot;:0,&quot;rounded&quot;:0};labelBackgroundColor=none;" parent="1" vertex="1">
          <mxGeometry x="470" y="1420" width="10" height="50" as="geometry" />
        </mxCell>
        <mxCell id="1XgZBxYEKL8TLryhyje8-107" value="armazenarAvaliacao()" style="verticalAlign=bottom;edgeStyle=elbowEdgeStyle;elbow=vertical;curved=0;rounded=0;endArrow=block;labelBackgroundColor=none;fontColor=default;" parent="1" edge="1">
          <mxGeometry relative="1" as="geometry">
            <Array as="points" />
            <mxPoint x="280" y="1430.1200000000001" as="sourcePoint" />
            <mxPoint x="470" y="1430" as="targetPoint" />
          </mxGeometry>
        </mxCell>
        <mxCell id="1XgZBxYEKL8TLryhyje8-108" value="confirmarAvaliacao()" style="verticalAlign=bottom;edgeStyle=elbowEdgeStyle;elbow=vertical;curved=0;rounded=0;dashed=1;dashPattern=2 3;endArrow=block;labelBackgroundColor=none;fontColor=default;exitX=0;exitY=1;exitDx=0;exitDy=-5;exitPerimeter=0;" parent="1" edge="1">
          <mxGeometry relative="1" as="geometry">
            <Array as="points">
              <mxPoint x="262.67999999999984" y="1460" />
            </Array>
            <mxPoint x="470" y="1460.53" as="sourcePoint" />
            <mxPoint x="280" y="1460" as="targetPoint" />
          </mxGeometry>
        </mxCell>
        <mxCell id="1XgZBxYEKL8TLryhyje8-109" value="registraAvaliacao()" style="verticalAlign=bottom;edgeStyle=elbowEdgeStyle;elbow=vertical;curved=0;rounded=0;dashed=1;dashPattern=2 3;endArrow=block;labelBackgroundColor=none;fontColor=default;exitX=0;exitY=1;exitDx=0;exitDy=-5;exitPerimeter=0;" parent="1" target="2" edge="1">
          <mxGeometry relative="1" as="geometry">
            <Array as="points">
              <mxPoint x="62.679999999999836" y="1480" />
            </Array>
            <mxPoint x="270" y="1480.53" as="sourcePoint" />
            <mxPoint x="80" y="1480" as="targetPoint" />
          </mxGeometry>
        </mxCell>
        <mxCell id="1XgZBxYEKL8TLryhyje8-110" value="Erro: arquivo rejeitado" style="verticalAlign=bottom;edgeStyle=elbowEdgeStyle;elbow=vertical;curved=0;rounded=0;dashed=1;dashPattern=2 3;endArrow=block;labelBackgroundColor=none;fontColor=default;exitX=0;exitY=1;exitDx=0;exitDy=-5;exitPerimeter=0;" parent="1" target="2" edge="1">
          <mxGeometry relative="1" as="geometry">
            <Array as="points">
              <mxPoint x="62.679999999999836" y="900.47" />
            </Array>
            <mxPoint x="270" y="901" as="sourcePoint" />
            <mxPoint x="80" y="900" as="targetPoint" />
          </mxGeometry>
        </mxCell>
        <mxCell id="1XgZBxYEKL8TLryhyje8-112" value="Upload com sucesso" style="verticalAlign=bottom;edgeStyle=elbowEdgeStyle;elbow=vertical;curved=0;rounded=0;dashed=1;dashPattern=2 3;endArrow=block;labelBackgroundColor=none;fontColor=default;" parent="1" target="2" edge="1">
          <mxGeometry relative="1" as="geometry">
            <Array as="points">
              <mxPoint x="269.99999999999983" y="830" />
            </Array>
            <mxPoint x="263.32" y="830" as="sourcePoint" />
            <mxPoint x="80" y="830" as="targetPoint" />
          </mxGeometry>
        </mxCell>
        <mxCell id="1XgZBxYEKL8TLryhyje8-116" value="alt" style="shape=umlFrame;whiteSpace=wrap;html=1;pointerEvents=0;labelBackgroundColor=none;" parent="1" vertex="1">
          <mxGeometry x="-130" y="1500" width="640" height="160" as="geometry" />
        </mxCell>
        <mxCell id="1XgZBxYEKL8TLryhyje8-117" value="[Ação Pós-Busca == realizaComentario]" style="text;html=1;align=center;verticalAlign=middle;whiteSpace=wrap;rounded=0;" parent="1" vertex="1">
          <mxGeometry x="-122.5" y="1530" width="192.5" height="30" as="geometry" />
        </mxCell>
        <mxCell id="1XgZBxYEKL8TLryhyje8-118" value="inserirComentario()" style="verticalAlign=bottom;edgeStyle=elbowEdgeStyle;elbow=vertical;curved=0;rounded=0;endArrow=block;labelBackgroundColor=none;fontColor=default;" parent="1" edge="1">
          <mxGeometry x="-0.0046" relative="1" as="geometry">
            <Array as="points" />
            <mxPoint x="74" y="1579.5500000000002" as="sourcePoint" />
            <mxPoint x="270" y="1579.5500000000002" as="targetPoint" />
            <mxPoint as="offset" />
          </mxGeometry>
        </mxCell>
        <mxCell id="1XgZBxYEKL8TLryhyje8-119" value="" style="html=1;points=[[0,0,0,0,5],[0,1,0,0,-5],[1,0,0,0,5],[1,1,0,0,-5]];perimeter=orthogonalPerimeter;outlineConnect=0;targetShapes=umlLifeline;portConstraint=eastwest;newEdgeStyle={&quot;curved&quot;:0,&quot;rounded&quot;:0};labelBackgroundColor=none;" parent="1" vertex="1">
          <mxGeometry x="270" y="1570" width="10" height="80" as="geometry" />
        </mxCell>
        <mxCell id="1XgZBxYEKL8TLryhyje8-120" value="" style="html=1;points=[[0,0,0,0,5],[0,1,0,0,-5],[1,0,0,0,5],[1,1,0,0,-5]];perimeter=orthogonalPerimeter;outlineConnect=0;targetShapes=umlLifeline;portConstraint=eastwest;newEdgeStyle={&quot;curved&quot;:0,&quot;rounded&quot;:0};labelBackgroundColor=none;" parent="1" vertex="1">
          <mxGeometry x="470" y="1580" width="10" height="50" as="geometry" />
        </mxCell>
        <mxCell id="1XgZBxYEKL8TLryhyje8-121" value="armazenarComentario()" style="verticalAlign=bottom;edgeStyle=elbowEdgeStyle;elbow=vertical;curved=0;rounded=0;endArrow=block;labelBackgroundColor=none;fontColor=default;" parent="1" edge="1">
          <mxGeometry relative="1" as="geometry">
            <Array as="points" />
            <mxPoint x="280" y="1590.1200000000001" as="sourcePoint" />
            <mxPoint x="470" y="1590" as="targetPoint" />
          </mxGeometry>
        </mxCell>
        <mxCell id="1XgZBxYEKL8TLryhyje8-122" value="confirmarComentario()" style="verticalAlign=bottom;edgeStyle=elbowEdgeStyle;elbow=vertical;curved=0;rounded=0;dashed=1;dashPattern=2 3;endArrow=block;labelBackgroundColor=none;fontColor=default;exitX=0;exitY=1;exitDx=0;exitDy=-5;exitPerimeter=0;" parent="1" edge="1">
          <mxGeometry relative="1" as="geometry">
            <Array as="points">
              <mxPoint x="262.67999999999984" y="1620" />
            </Array>
            <mxPoint x="470" y="1620.53" as="sourcePoint" />
            <mxPoint x="280" y="1620" as="targetPoint" />
          </mxGeometry>
        </mxCell>
        <mxCell id="1XgZBxYEKL8TLryhyje8-123" value="registraComentario()" style="verticalAlign=bottom;edgeStyle=elbowEdgeStyle;elbow=vertical;curved=0;rounded=0;dashed=1;dashPattern=2 3;endArrow=block;labelBackgroundColor=none;fontColor=default;exitX=0;exitY=1;exitDx=0;exitDy=-5;exitPerimeter=0;" parent="1" edge="1">
          <mxGeometry relative="1" as="geometry">
            <Array as="points">
              <mxPoint x="62.679999999999836" y="1640" />
            </Array>
            <mxPoint x="270" y="1640.53" as="sourcePoint" />
            <mxPoint x="74" y="1640" as="targetPoint" />
          </mxGeometry>
        </mxCell>
        <mxCell id="1XgZBxYEKL8TLryhyje8-124" value="alt" style="shape=umlFrame;whiteSpace=wrap;html=1;pointerEvents=0;labelBackgroundColor=none;" parent="1" vertex="1">
          <mxGeometry x="-130" y="1673" width="640" height="447" as="geometry" />
        </mxCell>
        <mxCell id="1XgZBxYEKL8TLryhyje8-125" value="[Ação Pós-Busca == fazerDownload]" style="text;html=1;align=center;verticalAlign=middle;whiteSpace=wrap;rounded=0;" parent="1" vertex="1">
          <mxGeometry x="-122.5" y="1703" width="192.5" height="30" as="geometry" />
        </mxCell>
        <mxCell id="1XgZBxYEKL8TLryhyje8-126" value="requisitarDownload()" style="verticalAlign=bottom;edgeStyle=elbowEdgeStyle;elbow=vertical;curved=0;rounded=0;endArrow=block;labelBackgroundColor=none;fontColor=default;" parent="1" edge="1">
          <mxGeometry x="-0.0046" relative="1" as="geometry">
            <Array as="points" />
            <mxPoint x="74" y="1752.0000000000002" as="sourcePoint" />
            <mxPoint x="270" y="1752.0000000000002" as="targetPoint" />
            <mxPoint as="offset" />
          </mxGeometry>
        </mxCell>
        <mxCell id="1XgZBxYEKL8TLryhyje8-127" value="" style="html=1;points=[[0,0,0,0,5],[0,1,0,0,-5],[1,0,0,0,5],[1,1,0,0,-5]];perimeter=orthogonalPerimeter;outlineConnect=0;targetShapes=umlLifeline;portConstraint=eastwest;newEdgeStyle={&quot;curved&quot;:0,&quot;rounded&quot;:0};labelBackgroundColor=none;" parent="1" vertex="1">
          <mxGeometry x="270" y="1740" width="10" height="360" as="geometry" />
        </mxCell>
        <mxCell id="1XgZBxYEKL8TLryhyje8-128" value="" style="html=1;points=[[0,0,0,0,5],[0,1,0,0,-5],[1,0,0,0,5],[1,1,0,0,-5]];perimeter=orthogonalPerimeter;outlineConnect=0;targetShapes=umlLifeline;portConstraint=eastwest;newEdgeStyle={&quot;curved&quot;:0,&quot;rounded&quot;:0};labelBackgroundColor=none;" parent="1" vertex="1">
          <mxGeometry x="470" y="1760" width="10" height="50" as="geometry" />
        </mxCell>
        <mxCell id="1XgZBxYEKL8TLryhyje8-129" value="verificarSaldoDisponivel()" style="verticalAlign=bottom;edgeStyle=elbowEdgeStyle;elbow=vertical;curved=0;rounded=0;endArrow=block;labelBackgroundColor=none;fontColor=default;" parent="1" source="1XgZBxYEKL8TLryhyje8-127" edge="1">
          <mxGeometry x="-0.0046" relative="1" as="geometry">
            <Array as="points" />
            <mxPoint x="284" y="1774.5000000000002" as="sourcePoint" />
            <mxPoint x="470" y="1775" as="targetPoint" />
            <mxPoint as="offset" />
          </mxGeometry>
        </mxCell>
        <mxCell id="1XgZBxYEKL8TLryhyje8-130" value="retornarSaldoAluno()" style="verticalAlign=bottom;edgeStyle=elbowEdgeStyle;elbow=vertical;curved=0;rounded=0;dashed=1;dashPattern=2 3;endArrow=block;labelBackgroundColor=none;fontColor=default;exitX=0;exitY=1;exitDx=0;exitDy=-5;exitPerimeter=0;" parent="1" edge="1">
          <mxGeometry relative="1" as="geometry">
            <Array as="points">
              <mxPoint x="262.67999999999984" y="1800" />
            </Array>
            <mxPoint x="470" y="1800.53" as="sourcePoint" />
            <mxPoint x="280" y="1800" as="targetPoint" />
          </mxGeometry>
        </mxCell>
        <mxCell id="1XgZBxYEKL8TLryhyje8-131" value="alt" style="shape=umlFrame;whiteSpace=wrap;html=1;pointerEvents=0;labelBackgroundColor=none;" parent="1" vertex="1">
          <mxGeometry x="-122.5" y="1830" width="622.5" height="280" as="geometry" />
        </mxCell>
        <mxCell id="1XgZBxYEKL8TLryhyje8-133" value="[saldoDisponivel &amp;gt;= saldoNecessario]" style="text;html=1;align=center;verticalAlign=middle;whiteSpace=wrap;rounded=0;" parent="1" vertex="1">
          <mxGeometry x="-111.25" y="1870" width="192.5" height="30" as="geometry" />
        </mxCell>
        <mxCell id="1XgZBxYEKL8TLryhyje8-136" value="confirmarDownload()" style="verticalAlign=bottom;edgeStyle=elbowEdgeStyle;elbow=vertical;curved=0;rounded=0;dashed=1;dashPattern=2 3;endArrow=block;labelBackgroundColor=none;fontColor=default;exitX=0;exitY=1;exitDx=0;exitDy=-5;exitPerimeter=0;" parent="1" edge="1">
          <mxGeometry x="-0.0497" relative="1" as="geometry">
            <Array as="points">
              <mxPoint x="262.67999999999984" y="1960" />
            </Array>
            <mxPoint x="470" y="1960.5299999999997" as="sourcePoint" />
            <mxPoint x="280" y="1960" as="targetPoint" />
            <mxPoint as="offset" />
          </mxGeometry>
        </mxCell>
        <mxCell id="1XgZBxYEKL8TLryhyje8-137" value="Registra download e desconta crédito" style="verticalAlign=bottom;edgeStyle=elbowEdgeStyle;elbow=vertical;curved=0;rounded=0;endArrow=block;labelBackgroundColor=none;fontColor=default;" parent="1" edge="1">
          <mxGeometry x="-0.0046" relative="1" as="geometry">
            <Array as="points" />
            <mxPoint x="280" y="1931" as="sourcePoint" />
            <mxPoint x="470" y="1931" as="targetPoint" />
            <mxPoint as="offset" />
          </mxGeometry>
        </mxCell>
        <mxCell id="1XgZBxYEKL8TLryhyje8-138" value="" style="html=1;points=[[0,0,0,0,5],[0,1,0,0,-5],[1,0,0,0,5],[1,1,0,0,-5]];perimeter=orthogonalPerimeter;outlineConnect=0;targetShapes=umlLifeline;portConstraint=eastwest;newEdgeStyle={&quot;curved&quot;:0,&quot;rounded&quot;:0};labelBackgroundColor=none;" parent="1" vertex="1">
          <mxGeometry x="470" y="1920" width="10" height="50" as="geometry" />
        </mxCell>
        <mxCell id="1XgZBxYEKL8TLryhyje8-139" value="liberarDownload()" style="verticalAlign=bottom;edgeStyle=elbowEdgeStyle;elbow=vertical;curved=0;rounded=0;dashed=1;dashPattern=2 3;endArrow=block;labelBackgroundColor=none;fontColor=default;exitX=0;exitY=1;exitDx=0;exitDy=-5;exitPerimeter=0;" parent="1" target="2" edge="1">
          <mxGeometry x="-0.0497" relative="1" as="geometry">
            <Array as="points">
              <mxPoint x="62.679999999999836" y="1990" />
            </Array>
            <mxPoint x="270" y="1990.5299999999997" as="sourcePoint" />
            <mxPoint x="80" y="1990" as="targetPoint" />
            <mxPoint as="offset" />
          </mxGeometry>
        </mxCell>
        <mxCell id="1XgZBxYEKL8TLryhyje8-140" value="" style="verticalAlign=bottom;edgeStyle=elbowEdgeStyle;elbow=vertical;curved=0;rounded=0;dashed=1;dashPattern=2 3;endArrow=none;labelBackgroundColor=none;fontColor=default;startFill=0;entryX=0.001;entryY=0.388;entryDx=0;entryDy=0;entryPerimeter=0;" parent="1" source="4" edge="1">
          <mxGeometry relative="1" as="geometry">
            <Array as="points">
              <mxPoint x="58.69999999999985" y="2020" />
            </Array>
            <mxPoint x="775" y="2020" as="sourcePoint" />
            <mxPoint x="-125.00000000000011" y="2020.44" as="targetPoint" />
          </mxGeometry>
        </mxCell>
        <mxCell id="1XgZBxYEKL8TLryhyje8-141" value="Erro: créditos insuficientes" style="verticalAlign=bottom;edgeStyle=elbowEdgeStyle;elbow=vertical;curved=0;rounded=0;dashed=1;dashPattern=2 3;endArrow=block;labelBackgroundColor=none;fontColor=default;exitX=0;exitY=1;exitDx=0;exitDy=-5;exitPerimeter=0;" parent="1" target="2" edge="1">
          <mxGeometry x="-0.0497" relative="1" as="geometry">
            <Array as="points">
              <mxPoint x="60.179999999999836" y="2090" />
            </Array>
            <mxPoint x="267.5" y="2090.5299999999997" as="sourcePoint" />
            <mxPoint x="80" y="2090" as="targetPoint" />
            <mxPoint as="offset" />
          </mxGeometry>
        </mxCell>
        <mxCell id="1XgZBxYEKL8TLryhyje8-142" value="[else]" style="text;html=1;align=center;verticalAlign=middle;whiteSpace=wrap;rounded=0;" parent="1" vertex="1">
          <mxGeometry x="-116.25" y="2026.5" width="192.5" height="30" as="geometry" />
        </mxCell>
        <mxCell id="Cvks8EGlnX5yU1Xf84aY-6" value="break" style="shape=umlFrame;whiteSpace=wrap;html=1;pointerEvents=0;labelBackgroundColor=none;" parent="1" vertex="1">
          <mxGeometry x="-141.25" y="2140" width="660" height="200" as="geometry" />
        </mxCell>
        <mxCell id="Cvks8EGlnX5yU1Xf84aY-7" value="[userInput == logout]" style="text;html=1;align=center;verticalAlign=middle;whiteSpace=wrap;rounded=0;" parent="1" vertex="1">
          <mxGeometry x="-101.25" y="2170" width="170" height="30" as="geometry" />
        </mxCell>
        <mxCell id="Cvks8EGlnX5yU1Xf84aY-9" value="solicitarLogout()" style="verticalAlign=bottom;edgeStyle=elbowEdgeStyle;elbow=vertical;curved=0;rounded=0;endArrow=block;labelBackgroundColor=none;fontColor=default;" parent="1" edge="1">
          <mxGeometry x="-0.0046" relative="1" as="geometry">
            <Array as="points" />
            <mxPoint x="74.87500000000023" y="2224.915" as="sourcePoint" />
            <mxPoint x="270" y="2225.04" as="targetPoint" />
            <mxPoint as="offset" />
          </mxGeometry>
        </mxCell>
        <mxCell id="Cvks8EGlnX5yU1Xf84aY-11" value="" style="html=1;points=[[0,0,0,0,5],[0,1,0,0,-5],[1,0,0,0,5],[1,1,0,0,-5]];perimeter=orthogonalPerimeter;outlineConnect=0;targetShapes=umlLifeline;portConstraint=eastwest;newEdgeStyle={&quot;curved&quot;:0,&quot;rounded&quot;:0};" parent="1" vertex="1">
          <mxGeometry x="270" y="2210" width="10" height="120" as="geometry" />
        </mxCell>
        <mxCell id="Cvks8EGlnX5yU1Xf84aY-12" value="encerrarSessao()" style="html=1;align=left;spacingLeft=2;endArrow=block;rounded=0;edgeStyle=orthogonalEdgeStyle;curved=0;rounded=0;" parent="1" target="Cvks8EGlnX5yU1Xf84aY-11" edge="1">
          <mxGeometry relative="1" as="geometry">
            <mxPoint x="280" y="2260" as="sourcePoint" />
            <Array as="points">
              <mxPoint x="280" y="2250" />
              <mxPoint x="310" y="2250" />
              <mxPoint x="310" y="2290" />
            </Array>
            <mxPoint x="285" y="2290" as="targetPoint" />
          </mxGeometry>
        </mxCell>
        <mxCell id="Cvks8EGlnX5yU1Xf84aY-13" value="Confirma logout" style="verticalAlign=bottom;edgeStyle=elbowEdgeStyle;elbow=vertical;curved=0;rounded=0;dashed=1;dashPattern=2 3;endArrow=block;labelBackgroundColor=none;fontColor=default;exitX=0;exitY=1;exitDx=0;exitDy=-5;exitPerimeter=0;" parent="1" target="2" edge="1">
          <mxGeometry x="-0.0497" relative="1" as="geometry">
            <Array as="points">
              <mxPoint x="62.679999999999836" y="2310" />
            </Array>
            <mxPoint x="270" y="2310.5299999999997" as="sourcePoint" />
            <mxPoint x="80" y="2310" as="targetPoint" />
            <mxPoint as="offset" />
          </mxGeometry>
        </mxCell>
        <mxCell id="Cvks8EGlnX5yU1Xf84aY-14" value="excluirConta()" style="verticalAlign=bottom;edgeStyle=elbowEdgeStyle;elbow=vertical;curved=0;rounded=0;endArrow=block;labelBackgroundColor=none;fontColor=default;" parent="1" edge="1">
          <mxGeometry x="-0.0046" relative="1" as="geometry">
            <Array as="points" />
            <mxPoint x="74.87500000000023" y="2390.005" as="sourcePoint" />
            <mxPoint x="270" y="2390.13" as="targetPoint" />
            <mxPoint as="offset" />
          </mxGeometry>
        </mxCell>
        <mxCell id="Cvks8EGlnX5yU1Xf84aY-17" value="excluirDadosConta()" style="verticalAlign=bottom;edgeStyle=elbowEdgeStyle;elbow=vertical;curved=0;rounded=0;endArrow=block;labelBackgroundColor=none;fontColor=default;" parent="1" edge="1">
          <mxGeometry x="-0.0046" relative="1" as="geometry">
            <Array as="points" />
            <mxPoint x="279.99500000000023" y="2409.995" as="sourcePoint" />
            <mxPoint x="470" y="2410" as="targetPoint" />
            <mxPoint as="offset" />
          </mxGeometry>
        </mxCell>
        <mxCell id="Cvks8EGlnX5yU1Xf84aY-18" value="Confirmar exclusão da conta" style="verticalAlign=bottom;edgeStyle=elbowEdgeStyle;elbow=vertical;curved=0;rounded=0;dashed=1;dashPattern=2 3;endArrow=block;labelBackgroundColor=none;fontColor=default;exitX=0;exitY=1;exitDx=0;exitDy=-5;exitPerimeter=0;" parent="1" edge="1">
          <mxGeometry x="-0.0497" relative="1" as="geometry">
            <Array as="points">
              <mxPoint x="262.67999999999984" y="2440" />
            </Array>
            <mxPoint x="470" y="2440.5299999999997" as="sourcePoint" />
            <mxPoint x="280" y="2440" as="targetPoint" />
            <mxPoint as="offset" />
          </mxGeometry>
        </mxCell>
        <mxCell id="Cvks8EGlnX5yU1Xf84aY-19" value="Informar exclusão da conta" style="verticalAlign=bottom;edgeStyle=elbowEdgeStyle;elbow=vertical;curved=0;rounded=0;dashed=1;dashPattern=2 3;endArrow=block;labelBackgroundColor=none;fontColor=default;exitX=0;exitY=1;exitDx=0;exitDy=-5;exitPerimeter=0;" parent="1" target="2" edge="1">
          <mxGeometry x="-0.0497" relative="1" as="geometry">
            <Array as="points">
              <mxPoint x="62.679999999999836" y="2460" />
            </Array>
            <mxPoint x="270" y="2460.5299999999997" as="sourcePoint" />
            <mxPoint x="80" y="2460" as="targetPoint" />
            <mxPoint as="offset" />
          </mxGeometry>
        </mxCell>
        <mxCell id="XL7HRUZ1tozqfuqfQOcD-8" value="fazerLogin(dadosDeLogin)" style="verticalAlign=bottom;edgeStyle=elbowEdgeStyle;elbow=vertical;curved=0;rounded=0;endArrow=none;labelBackgroundColor=none;fontColor=default;startFill=1;startArrow=block;exitX=1;exitY=0;exitDx=0;exitDy=5;exitPerimeter=0;" edge="1" parent="1">
          <mxGeometry x="-0.0006" relative="1" as="geometry">
            <Array as="points" />
            <mxPoint x="280" y="2510" as="sourcePoint" />
            <mxPoint x="698.5" y="2510.1515151515155" as="targetPoint" />
            <mxPoint as="offset" />
          </mxGeometry>
        </mxCell>
        <mxCell id="XL7HRUZ1tozqfuqfQOcD-19" value="buscaDadosLogin(dadosDeLogin)" style="verticalAlign=bottom;edgeStyle=elbowEdgeStyle;elbow=vertical;curved=0;rounded=0;endArrow=block;labelBackgroundColor=none;fontColor=default;" edge="1" parent="1">
          <mxGeometry relative="1" as="geometry">
            <Array as="points">
              <mxPoint x="359" y="2540" />
            </Array>
            <mxPoint x="280" y="2540" as="sourcePoint" />
            <mxPoint x="470" y="2540" as="targetPoint" />
          </mxGeometry>
        </mxCell>
        <mxCell id="XL7HRUZ1tozqfuqfQOcD-21" value="dadosVerificados" style="verticalAlign=bottom;edgeStyle=elbowEdgeStyle;elbow=vertical;curved=0;rounded=0;dashed=1;dashPattern=2 3;endArrow=block;labelBackgroundColor=none;fontColor=default;" edge="1" parent="1">
          <mxGeometry x="-0.0009" relative="1" as="geometry">
            <Array as="points">
              <mxPoint x="382.6799999999998" y="2570" />
            </Array>
            <mxPoint x="470.1799999999998" y="2570" as="sourcePoint" />
            <mxPoint x="280" y="2570" as="targetPoint" />
            <mxPoint as="offset" />
          </mxGeometry>
        </mxCell>
        <mxCell id="XL7HRUZ1tozqfuqfQOcD-26" value="" style="verticalAlign=bottom;edgeStyle=elbowEdgeStyle;elbow=vertical;curved=0;rounded=0;dashed=1;dashPattern=2 3;endArrow=none;labelBackgroundColor=none;fontColor=default;exitX=1;exitY=0.538;exitDx=0;exitDy=0;exitPerimeter=0;startFill=0;entryX=0.001;entryY=0.388;entryDx=0;entryDy=0;entryPerimeter=0;" edge="1" parent="1" source="XL7HRUZ1tozqfuqfQOcD-27">
          <mxGeometry relative="1" as="geometry">
            <Array as="points">
              <mxPoint x="273.6999999999998" y="2690" />
            </Array>
            <mxPoint x="719.3700000000001" y="2691.8" as="sourcePoint" />
            <mxPoint x="89.99999999999989" y="2690.44" as="targetPoint" />
          </mxGeometry>
        </mxCell>
        <mxCell id="XL7HRUZ1tozqfuqfQOcD-27" value="alt" style="shape=umlFrame;whiteSpace=wrap;html=1;pointerEvents=0;labelBackgroundColor=none;" vertex="1" parent="1">
          <mxGeometry x="90" y="2620" width="650" height="130" as="geometry" />
        </mxCell>
        <mxCell id="XL7HRUZ1tozqfuqfQOcD-28" value="[dados.login == login]" style="text;html=1;align=center;verticalAlign=middle;whiteSpace=wrap;rounded=0;" vertex="1" parent="1">
          <mxGeometry x="145" y="2630" width="120" height="30" as="geometry" />
        </mxCell>
        <mxCell id="XL7HRUZ1tozqfuqfQOcD-29" value="[else]" style="text;html=1;align=center;verticalAlign=middle;whiteSpace=wrap;rounded=0;" vertex="1" parent="1">
          <mxGeometry x="161.25" y="2690" width="50" height="30" as="geometry" />
        </mxCell>
        <mxCell id="XL7HRUZ1tozqfuqfQOcD-30" value="Faz login" style="verticalAlign=bottom;edgeStyle=elbowEdgeStyle;elbow=vertical;curved=0;rounded=0;endArrow=block;labelBackgroundColor=none;fontColor=default;dashed=1;" edge="1" parent="1">
          <mxGeometry x="-0.0046" relative="1" as="geometry">
            <Array as="points" />
            <mxPoint x="279.99500000000023" y="2670.0049999999997" as="sourcePoint" />
            <mxPoint x="698.5" y="2670.217826086957" as="targetPoint" />
            <mxPoint as="offset" />
          </mxGeometry>
        </mxCell>
        <mxCell id="XL7HRUZ1tozqfuqfQOcD-31" value="Retorna erro" style="verticalAlign=bottom;edgeStyle=elbowEdgeStyle;elbow=vertical;curved=0;rounded=0;endArrow=block;labelBackgroundColor=none;fontColor=default;dashed=1;" edge="1" parent="1">
          <mxGeometry x="-0.0046" relative="1" as="geometry">
            <Array as="points" />
            <mxPoint x="279.99500000000023" y="2730.0049999999997" as="sourcePoint" />
            <mxPoint x="698.5" y="2730.217826086957" as="targetPoint" />
            <mxPoint as="offset" />
          </mxGeometry>
        </mxCell>
        <mxCell id="XL7HRUZ1tozqfuqfQOcD-32" value="concederBonificacao()" style="verticalAlign=bottom;edgeStyle=elbowEdgeStyle;elbow=vertical;curved=0;rounded=0;endArrow=none;labelBackgroundColor=none;fontColor=default;startFill=1;startArrow=block;" edge="1" parent="1">
          <mxGeometry x="-0.0046" relative="1" as="geometry">
            <Array as="points">
              <mxPoint x="300" y="3250" />
            </Array>
            <mxPoint x="280" y="3250" as="sourcePoint" />
            <mxPoint x="699" y="3250" as="targetPoint" />
            <mxPoint as="offset" />
          </mxGeometry>
        </mxCell>
        <mxCell id="XL7HRUZ1tozqfuqfQOcD-35" value="atualizarCreditoAluno()" style="verticalAlign=bottom;edgeStyle=elbowEdgeStyle;elbow=vertical;curved=0;rounded=0;endArrow=block;labelBackgroundColor=none;fontColor=default;" edge="1" parent="1">
          <mxGeometry x="-0.0046" relative="1" as="geometry">
            <Array as="points" />
            <mxPoint x="279.99500000000023" y="3280.105" as="sourcePoint" />
            <mxPoint x="470" y="3280.11" as="targetPoint" />
            <mxPoint as="offset" />
          </mxGeometry>
        </mxCell>
        <mxCell id="XL7HRUZ1tozqfuqfQOcD-37" value="Confirmar atualização de crédito" style="verticalAlign=bottom;edgeStyle=elbowEdgeStyle;elbow=vertical;curved=0;rounded=0;dashed=1;dashPattern=2 3;endArrow=block;labelBackgroundColor=none;fontColor=default;exitX=0;exitY=1;exitDx=0;exitDy=-5;exitPerimeter=0;" edge="1" parent="1">
          <mxGeometry x="-0.0497" relative="1" as="geometry">
            <Array as="points">
              <mxPoint x="262.67999999999984" y="3310" />
            </Array>
            <mxPoint x="470" y="3310.5299999999997" as="sourcePoint" />
            <mxPoint x="280" y="3310" as="targetPoint" />
            <mxPoint as="offset" />
          </mxGeometry>
        </mxCell>
        <mxCell id="XL7HRUZ1tozqfuqfQOcD-40" value="Notifica aluno da bonificação" style="verticalAlign=bottom;edgeStyle=elbowEdgeStyle;elbow=vertical;curved=0;rounded=0;dashed=1;dashPattern=2 3;endArrow=block;labelBackgroundColor=none;fontColor=default;exitX=0;exitY=1;exitDx=0;exitDy=-5;exitPerimeter=0;" edge="1" parent="1">
          <mxGeometry x="-0.0497" relative="1" as="geometry">
            <Array as="points">
              <mxPoint x="58.929999999999836" y="3360" />
            </Array>
            <mxPoint x="266.25" y="3360.5299999999997" as="sourcePoint" />
            <mxPoint x="76.25" y="3360" as="targetPoint" />
            <mxPoint as="offset" />
          </mxGeometry>
        </mxCell>
        <mxCell id="Cvks8EGlnX5yU1Xf84aY-43" value="" style="html=1;points=[[0,0,0,0,5],[0,1,0,0,-5],[1,0,0,0,5],[1,1,0,0,-5]];perimeter=orthogonalPerimeter;outlineConnect=0;targetShapes=umlLifeline;portConstraint=eastwest;newEdgeStyle={&quot;curved&quot;:0,&quot;rounded&quot;:0};" parent="1" vertex="1">
          <mxGeometry x="270" y="3410" width="10" height="120" as="geometry" />
        </mxCell>
        <mxCell id="Cvks8EGlnX5yU1Xf84aY-46" value="encerrarSessao()" style="html=1;align=left;spacingLeft=2;endArrow=block;rounded=0;edgeStyle=orthogonalEdgeStyle;curved=0;rounded=0;" parent="1" edge="1">
          <mxGeometry relative="1" as="geometry">
            <mxPoint x="280" y="3460" as="sourcePoint" />
            <Array as="points">
              <mxPoint x="280" y="3450" />
              <mxPoint x="310" y="3450" />
              <mxPoint x="310" y="3490" />
            </Array>
            <mxPoint x="280" y="3490" as="targetPoint" />
          </mxGeometry>
        </mxCell>
        <mxCell id="Cvks8EGlnX5yU1Xf84aY-44" value="solicitarLogout()" style="verticalAlign=bottom;edgeStyle=elbowEdgeStyle;elbow=vertical;curved=0;rounded=0;endArrow=none;labelBackgroundColor=none;fontColor=default;startFill=1;startArrow=block;" parent="1" edge="1">
          <mxGeometry x="-0.0046" relative="1" as="geometry">
            <Array as="points">
              <mxPoint x="300" y="3430" />
            </Array>
            <mxPoint x="280" y="3430" as="sourcePoint" />
            <mxPoint x="699" y="3430" as="targetPoint" />
            <mxPoint as="offset" />
          </mxGeometry>
        </mxCell>
        <mxCell id="Cvks8EGlnX5yU1Xf84aY-47" value="Confirma logout" style="verticalAlign=bottom;edgeStyle=elbowEdgeStyle;elbow=vertical;curved=0;rounded=0;endArrow=block;labelBackgroundColor=none;fontColor=default;dashed=1;" parent="1" edge="1">
          <mxGeometry x="-0.0046" relative="1" as="geometry">
            <Array as="points" />
            <mxPoint x="279.99500000000023" y="3520.1349999999998" as="sourcePoint" />
            <mxPoint x="700" y="3520" as="targetPoint" />
            <mxPoint as="offset" />
          </mxGeometry>
        </mxCell>
      </root>
    </mxGraphModel>
  </diagram>
</mxfile>
